HIERARCHY
ROOT hip
{
  OFFSET 0 0 0
  CHANNELS 6 Xposition Yposition Zposition Zrotation Yrotation Xrotation
  JOINT abdomen
  {
    OFFSET 0 20.6881 -0.73152
    CHANNELS 3 Zrotation Xrotation Yrotation
    JOINT chest
    {
      OFFSET 0 11.7043 -0.48768
      CHANNELS 3 Zrotation Xrotation Yrotation
      JOINT neck
      {
        OFFSET 0 22.1894 -2.19456
        CHANNELS 3 Zrotation Xrotation Yrotation
        JOINT head
        {
          OFFSET -0.24384 7.07133 1.2192
          CHANNELS 3 Zrotation Xrotation Yrotation
          JOINT leftEye
          {
            OFFSET 4.14528 8.04674 8.04672
            CHANNELS 3 Zrotation Xrotation Yrotation
            End Site
            {
              OFFSET 1 0 0
            }
          }
          JOINT rightEye
          {
            OFFSET -3.6576 8.04674 8.04672
            CHANNELS 3 Zrotation Xrotation Yrotation
            End Site
            {
              OFFSET 1 0 0
            }
          }
        }
      }
      JOINT rCollar
      {
        OFFSET -2.68224 19.2634 -4.8768
        CHANNELS 3 Zrotation Xrotation Yrotation
        JOINT rShldr
        {
          OFFSET -8.77824 -1.95073 1.46304
          CHANNELS 3 Zrotation Xrotation Yrotation
          JOINT rForeArm
          {
            OFFSET -28.1742 -1.7115 0.48768
            CHANNELS 3 Zrotation Xrotation Yrotation
            JOINT rHand
            {
              OFFSET -22.5879 0.773209 7.07136
              CHANNELS 3 Zrotation Xrotation Yrotation
              JOINT rThumb1
              {
                OFFSET -1.2192 -0.487915 3.41376
                CHANNELS 3 Zrotation Xrotation Yrotation
                JOINT rThumb2
                {
                  OFFSET -3.37035 -0.52449 3.41376
                  CHANNELS 3 Zrotation Xrotation Yrotation
                  End Site
                  {
                    OFFSET -1.78271 -1.18214 1.43049
                  }
                }
              }
              JOINT rIndex1
              {
                OFFSET -7.75947 0.938293 5.60832
                CHANNELS 3 Zrotation Xrotation Yrotation
                JOINT rIndex2
                {
                  OFFSET -2.54057 -0.884171 1.56538
                  CHANNELS 3 Zrotation Xrotation Yrotation
                  End Site
                  {
                    OFFSET -1.62519 -0.234802 1.16502
                  }
                }
              }
              JOINT rMid1
              {
                OFFSET -8.24714 1.18213 3.41376
                CHANNELS 3 Zrotation Xrotation Yrotation
                JOINT rMid2
                {
                  OFFSET -3.10165 -0.590103 1.0647
                  CHANNELS 3 Zrotation Xrotation Yrotation
                  End Site
                  {
                    OFFSET -2.48547 -0.328903 0.83742
                  }
                }
              }
              JOINT rRing1
              {
                OFFSET -8.82822 0.546677 1.51678
                CHANNELS 3 Zrotation Xrotation Yrotation
                JOINT rRing2
                {
                  OFFSET -2.60934 -0.819778 -0.0198488
                  CHANNELS 3 Zrotation Xrotation Yrotation
                  End Site
                  {
                    OFFSET -2.33842 -0.294052 0.168128
                  }
                }
              }
              JOINT rPinky1
              {
                OFFSET -8.27202 -0.0477905 -0.4584
                CHANNELS 3 Zrotation Xrotation Yrotation
                JOINT rPinky2
                {
                  OFFSET -1.82734 -0.647385 -0.700984
                  CHANNELS 3 Zrotation Xrotation Yrotation
                  End Site
                  {
                    OFFSET -1.69225 -0.51767 -0.607171
                  }
                }
              }
            }
          }
        }
      }
      JOINT lCollar
      {
        OFFSET 2.68224 19.2634 -4.8768
        CHANNELS 3 Zrotation Xrotation Yrotation
        JOINT lShldr
        {
          OFFSET 8.77824 -1.95073 1.46304
          CHANNELS 3 Zrotation Xrotation Yrotation
          JOINT lForeArm
          {
            OFFSET 28.1742 -1.7115 0.48768
            CHANNELS 3 Zrotation Xrotation Yrotation
            JOINT lHand
            {
              OFFSET 22.5879 0.773209 7.07136
              CHANNELS 3 Zrotation Xrotation Yrotation
              JOINT lThumb1
              {
                OFFSET 1.2192 -0.487915 3.41376
                CHANNELS 3 Zrotation Xrotation Yrotation
                JOINT lThumb2
                {
                  OFFSET 3.37035 -0.52449 3.41376
                  CHANNELS 3 Zrotation Xrotation Yrotation
                  End Site
                  {
                    OFFSET 1.78271 -1.18214 1.43049
                  }
                }
              }
              JOINT lIndex1
              {
                OFFSET 7.75947 0.938293 5.60832
                CHANNELS 3 Zrotation Xrotation Yrotation
                JOINT lIndex2
                {
                  OFFSET 2.54057 -0.884171 1.56538
                  CHANNELS 3 Zrotation Xrotation Yrotation
                  End Site
                  {
                    OFFSET 1.62519 -0.234802 1.16502
                  }
                }
              }
              JOINT lMid1
              {
                OFFSET 8.24714 1.18213 3.41376
                CHANNELS 3 Zrotation Xrotation Yrotation
                JOINT lMid2
                {
                  OFFSET 3.10165 -0.590103 1.0647
                  CHANNELS 3 Zrotation Xrotation Yrotation
                  End Site
                  {
                    OFFSET 2.48547 -0.328903 0.83742
                  }
                }
              }
              JOINT lRing1
              {
                OFFSET 8.82822 0.546677 1.51678
                CHANNELS 3 Zrotation Xrotation Yrotation
                JOINT lRing2
                {
                  OFFSET 2.60934 -0.819778 -0.0198488
                  CHANNELS 3 Zrotation Xrotation Yrotation
                  End Site
                  {
                    OFFSET 2.33842 -0.294052 0.168128
                  }
                }
              }
              JOINT lPinky1
              {
                OFFSET 8.27202 -0.0477905 -0.4584
                CHANNELS 3 Zrotation Xrotation Yrotation
                JOINT lPinky2
                {
                  OFFSET 1.82734 -0.647385 -0.700984
                  CHANNELS 3 Zrotation Xrotation Yrotation
                  End Site
                  {
                    OFFSET 1.69225 -0.51767 -0.607171
                  }
                }
              }
            }
          }
        }
      }
    }
  }
  JOINT rButtock
  {
    OFFSET -8.77824 4.35084 1.2192
    CHANNELS 3 Zrotation Xrotation Yrotation
    JOINT rThigh
    {
      OFFSET 0 -1.70687 -2.19456
      CHANNELS 3 Zrotation Xrotation Yrotation
      JOINT rShin
      {
        OFFSET 0 -36.8199 0.73152
        CHANNELS 3 Zrotation Xrotation Yrotation
        JOINT rFoot
        {
          OFFSET 0.73152 -45.1104 -5.12064
          CHANNELS 3 Zrotation Xrotation Yrotation
          End Site
          {
            OFFSET -1.1221 -3.69964 12.103
          }
        }
      }
    }
  }
  JOINT lButtock
  {
    OFFSET 8.77824 4.35084 1.2192
    CHANNELS 3 Zrotation Xrotation Yrotation
    JOINT lThigh
    {
      OFFSET 0 -1.70687 -2.19456
      CHANNELS 3 Zrotation Xrotation Yrotation
      JOINT lShin
      {
        OFFSET 0 -36.8199 0.73152
        CHANNELS 3 Zrotation Xrotation Yrotation
        JOINT lFoot
        {
          OFFSET -0.73152 -45.1104 -5.12064
          CHANNELS 3 Zrotation Xrotation Yrotation
          End Site
          {
            OFFSET 1.1221 -3.69964 12.103
          }
        }
      }
    }
  }
}
MOTION
Frames:	7
Frame Time:	0.03333
-62.002500000000005 59.2282 55.937599999999996 8.597895 -22.180742 -8.236984 -16.642014 12.847178 -83.880699 7.119529 4.582923 79.035109 8.612776 25.277861 98.448616 -31.27157 12.821752 -121.510668 0.000546 -0.0 -0.001024 0.000546 -0.0 -0.001024 -157.797037 -22.115404 165.467556 139.989802 0.921782 176.038214 -2.259165 -23.516741 47.42908 -6.384633 31.082906 2.183946 -6.580319 6.345187 1.365735 -141.632895 -46.989747 115.795566 -152.811239 -19.873513 121.572861 -133.998121 32.236027 108.365258 -151.477197 17.841573 137.538094 86.528239 -77.983841 57.715845 0.000492 -0.018668 -0.00496 9.791481 6.860226 0.82939 -35.018177 -44.047367 -33.927455 -145.119774 7.266437 -142.159188 159.221706 -48.725038 -170.56717 -161.204276 -6.090402 137.829319 108.38427 57.869625 -52.066872 -139.557097 -59.425668 -121.446544 176.599138 -14.212878 -89.690157 135.875503 12.877256 -69.011422 166.822725 -43.973407 -122.062176 -96.666217 -70.126528 -41.058148 -23.904949 -61.333622 -1.400545 170.507919 -26.231652 -144.176208 77.742887 72.901616 -95.870403 159.191735 -20.080353 -179.042248 157.326543 57.246442 150.5139 148.337561 11.840666 142.057188 0.000897 0.002059 -0.001153 -48.384071 -53.425074 -42.680715 -33.09867 71.011728 -63.641912 157.738386 31.344789 -91.676951 -179.991379 75.74942 -0.007607 -112.770867 78.169495 -66.567672 2.503257 51.565082 81.543752 -102.184821 27.867731 -7.430813
-62.53880000000001 59.450599999999994 56.269000000000005 9.445925 -21.935339 -7.558985 -19.891714 14.616603 -0.0 7.749473 -8.845019 -3.689175 -5.567619 34.977608 -152.745779 17.555569 40.209086 121.928546 0.000828 -0.0 -0.000889 0.000828 -0.0 -0.000889 -9.651688 34.83618 11.199223 51.780793 25.751545 27.156096 127.755175 18.08879 127.999925 -179.871676 21.586201 147.431802 -7.352024 7.061961 1.569957 -84.25592 18.73559 78.373031 11.981451 -21.346858 -5.060947 -78.228027 48.685837 62.988153 -0.057477 0.16779 0.033323 168.043137 -64.094247 133.245402 -145.121657 1.975109 -179.749497 11.054786 13.76721 -7.371882 -128.875586 -23.774808 -126.52478 -80.189986 -52.796681 -80.385835 -0.117742 -0.714113 0.157592 -119.269122 -75.540305 -42.928468 -94.227829 -86.184265 -21.164648 -163.238612 -28.269749 -141.878412 -83.253728 -50.25772 -33.616529 91.865804 38.728216 -54.600761 77.667601 43.031142 -64.538267 -154.123209 -55.732615 -95.944837 12.844866 28.996715 -9.150087 167.775072 -19.03989 -144.252295 0.000232 -0.060582 0.020836 -9.23705 12.719486 -1.665858 -1.298783 3.49148 -1.192937 -44.75 83.534333 7.417276 179.998716 75.750466 0.001325 153.528915 8.265485 -106.103582 -77.886894 -19.092159 -131.922981 -148.688179 1.702559 133.647439 179.997151 75.748949 0.002939 -106.813533 79.210439 -73.467348 -11.83145 41.257943 -29.185472 179.56113 -27.337943 -87.409476
-62.9771 59.5806 56.584900000000005 9.943832 -21.742365 -6.570947 -20.409319 13.907693 4.251691 7.079736 -9.369914 -8.29459 8.008683 22.789583 82.971831 -32.176927 5.071863 -108.812979 -0.000434 -0.0 0.006094 0.004138 -0.0 -0.002627 0.133709 -0.807017 -0.179418 -112.457397 4.255977 -175.029663 3.408922 -0.602355 -88.376779 161.964773 -31.278754 140.903677 -8.965713 8.545654 2.028612 -14.437799 13.278593 17.249011 -0.32699 0.530356 0.184383 16.869025 -7.624119 -1.290104 -159.365035 -2.685616 142.597122 -170.458479 -26.2825 143.873831 -145.120907 0.268371 -179.211184 12.047692 35.302924 -5.003921 -145.694369 13.732056 -142.281796 -24.210347 -39.109273 -25.589892 143.298215 38.836749 -147.735847 -21.052024 -57.44519 -73.72447 -63.769162 -81.788179 -95.357433 11.072082 41.096216 -3.592365 0.441107 0.435422 -0.070316 122.842041 -14.512824 -110.211877 127.616348 18.963171 -107.328451 -5.311737 4.402387 7.563426 -0.540808 -1.590055 0.294242 -3.088423 0.406736 -0.025915 72.96581 -72.143259 89.990042 147.594273 -44.564356 176.341049 -5.664103 16.872308 -5.085075 85.445855 -53.888312 84.638336 -0.003002 -0.000508 -0.003002 -53.861866 -55.712091 180.0 -65.71184 -50.46963 33.462748 152.936242 -35.982273 -87.638282 179.997373 75.75015 0.00271 -104.678373 79.412952 -74.873086 1.362363 43.934065 70.600927 14.836045 -37.526367 -35.685956
-63.254900000000006 59.6878 56.8705 9.882034 -21.979743 -5.687615 -17.36311 11.349144 -79.132659 7.675801 3.337195 73.814689 -9.830378 18.456086 -30.542287 22.011961 -18.179543 8.33824 -0.005629 0.0 -0.006948 0.001102 0.0 0.000181 -143.620384 38.23359 148.08111 79.621119 -42.26367 100.905135 48.130164 -55.276745 94.969697 -20.741109 55.730445 9.236783 -85.830034 38.630463 47.954945 -94.500609 -6.057274 67.494043 -10.572085 15.013432 6.864266 5.503688 6.002299 0.441732 -160.674134 -6.667617 143.245423 -171.196991 -28.314937 143.807712 -145.121825 1.974794 -179.748137 -152.413443 76.271443 166.975397 -128.875823 -23.774799 -126.524688 -152.48196 29.459269 -145.334718 142.972926 39.431023 -147.388744 -105.486451 -35.530842 -136.937978 119.326979 43.844386 -74.81869 -106.535212 -67.452479 -91.76 3.451333 3.370623 -0.628655 133.342068 -33.726742 -115.416456 -73.419889 -73.571314 -26.562215 127.938843 28.648273 -105.277068 89.83645 60.702111 -81.26227 -80.825961 -77.799987 -52.174566 -0.005437 1.771342 -0.556758 155.853513 -5.761808 -172.549394 59.991114 -51.223025 58.614152 146.900248 13.155195 143.295967 -0.000884 -0.000878 0.001136 -53.261859 -54.04454 -47.927974 9.975258 76.686082 115.523834 22.166288 59.022325 -109.06389 -0.001353 0.000951 -0.002029 10.620928 11.858192 -1.997999 -1.247693 47.478328 123.685366 -101.119555 66.922125 -7.045693
-63.4751 59.674400000000006 57.0859 10.273388 -22.396668 -5.30129 -20.105101 12.96061 3.844544 6.602929 -9.252597 -7.680448 8.636703 25.130873 95.201322 -32.793459 12.574776 -119.654301 0.003174 0.0 0.00096 -0.002503 -0.0 0.001712 -155.716486 -4.925241 162.135959 -46.030984 7.708676 13.743167 -179.198184 24.412192 -123.619431 -9.770086 37.300355 2.868743 -166.744871 -4.418483 89.780544 47.021338 -64.905206 37.44954 -19.170963 24.113816 13.382574 -169.897608 -21.411357 110.011703 -175.934309 -50.680265 144.034022 -170.581689 -26.252663 143.939854 -0.000725 -0.018632 -0.005015 -156.267179 -17.691978 173.937043 -150.575306 31.034156 -146.36421 -170.68539 69.571946 -143.709101 59.829206 -86.721788 81.629739 -24.869892 3.436969 52.999135 124.805419 -3.300022 -156.049862 -36.274149 -57.533135 -25.12895 -5.513137 -5.499745 0.58717 87.125843 24.9167 -78.388995 0.045307 0.071342 -0.02438 166.384433 -20.470996 -109.647144 153.320832 13.629334 -138.863457 88.599998 63.711876 -80.393243 -0.002145 0.06402 -0.018396 -10.690989 -5.702051 0.762837 144.645751 10.415637 141.354823 127.276437 -28.799419 124.766524 179.998067 75.750667 0.001994 152.655685 6.286119 -86.637307 -76.44018 -10.265374 0.318351 7.412636 52.142084 87.861321 -0.0 -0.001025 -0.000491 10.894229 11.086163 -106.648125 -34.557325 -18.09055 64.550932 141.392825 -87.484563 -143.149858
-63.7046 59.621100000000006 57.2955 10.468581 -22.723502 -4.912287 -20.014016 12.721007 -0.0 7.055355 -8.786091 -3.67464 8.687716 25.771653 98.950952 -32.889886 14.772896 -122.96791 0.003762 0.0 0.001659 0.003473 -0.0 -0.001607 -155.417509 -2.951546 161.718148 134.329854 -34.917278 163.206393 0.02233 -45.991742 53.882212 -7.47491 32.318577 2.18686 -174.053141 -11.718476 89.876046 -171.407612 -8.515376 91.554428 -19.17155 24.113758 13.38223 8.309808 0.503872 -0.933958 -171.061053 -38.900029 145.271027 -164.147785 -7.023035 143.21889 -145.099363 -1.522154 -178.651197 -148.000523 -43.007901 -170.614023 0.211251 0.551531 0.196526 -152.257258 29.153446 -147.211952 -4.252555 -45.493687 8.802991 -64.044309 4.296526 27.623511 14.294224 42.467369 -48.34603 2.947833 15.177626 -0.750463 175.198246 -12.846035 -89.808054 -16.314536 -63.342853 -14.754257 155.193188 -24.300029 -122.142907 -133.007653 -69.620639 -75.67164 82.840473 61.111282 -74.532304 7.208763 26.187148 -6.237222 145.099791 -1.520789 178.648417 157.199168 45.540866 -175.534174 26.564434 -38.860801 25.605986 151.698461 29.375732 146.889272 0.047571 -0.001049 0.035678 -55.421817 -54.720216 -50.438715 -1.759251 68.9873 38.228614 -43.473074 13.722316 -2.136898 0.000152 0.000228 -0.000196 9.154001 13.081934 -0.0 -0.156834 46.059873 137.820284 -35.945975 -20.699752 -112.202977
-63.84140000000001 59.5388 57.4687 10.162866 -22.990929 -4.561801 -19.470996 12.664407 -0.0 6.877089 -8.773246 -3.526953 -13.606497 26.820948 -81.729587 37.128043 7.195815 54.223475 0.000194 -0.0 -0.003416 0.000908 0.0 0.001245 3.205693 -26.010369 -5.106247 -126.923079 11.170482 -160.372006 23.326894 33.137993 -100.321694 167.248267 -16.884043 144.88188 -169.573056 -7.253572 89.929027 73.978675 -67.29734 56.454543 73.419696 -73.571458 26.563521 87.24984 -64.750337 30.736522 -36.037179 51.722663 29.832879 -163.093663 -4.757304 143.252116 0.002103 0.063767 0.020486 11.410077 -44.455231 -5.498634 -141.577453 1.570748 -138.571804 -162.188914 55.897792 -146.706681 -3.820255 -59.618606 12.261458 -62.63685 11.687016 39.234744 -108.291658 -42.224427 -55.606264 176.84257 26.610773 -145.726091 174.192537 -11.857702 -89.870347 35.549478 -26.44723 -3.292199 -12.217165 -21.784544 5.120153 -88.074986 -60.572329 -34.458095 161.51826 -9.304383 -143.625317 -92.054796 -78.191425 -63.072166 -0.005538 1.769433 -0.55641 154.169402 14.734556 -169.808 -12.418586 42.087856 -10.393464 155.553576 38.116173 148.164859 179.997399 75.749992 -0.0 151.641585 4.344792 -180.0 -1.724175 -77.486534 -81.865644 -149.632866 -27.193231 105.032441 0.001233 -8.4e-05 0.000616 9.319329 11.304991 -180.0 -3.862322 -41.698399 -104.314419 143.609079 -41.278303 32.681152
